{"title":"Ken Park (Uncut/Uncensored Director's Version) DVD RIP (2002)","uid":9316133,"size":1468751510,"categoryP":"video","categoryS":"movies","magnet":"?xt=urn:btih:3acfb5c2d8ad9b0faac1d870bd6791dbf03c35c9&amp;dn=Ken+Park+%28Uncut%2FUncensored+Director%27s+Version%29+DVD+RIP+%282002%29&amp;tr=udp%3A%2F%2Ftracker.openbittorrent.com%3A80&amp;tr=udp%3A%2F%2Fopen.demonii.com%3A1337&amp;tr=udp%3A%2F%2Ftracker.coppersurfer.tk%3A6969&amp;tr=udp%3A%2F%2Fexodus.desync.com%3A6969","seeders":73,"leechers":11,"uploader":"ben1366","files":-1,"time":1386472638,"description":" &lt;a href=&quot;http://postimg.org/image/5du2pg09b/&quot; rel=&quot;nofollow&quot; target=&quot;_NEW&quot;&gt;http://postimg.org/image/5du2pg09b/&lt;/a&gt;\n &lt;a href=&quot;\nhttp://postimg.org/image/5f40iv233/&quot; rel=&quot;nofollow&quot; target=&quot;_NEW&quot;&gt;\nhttp://postimg.org/image/5f40iv233/&lt;/a&gt;\n &lt;a href=&quot;\nhttp://postimg.org/image/786x76n9r/&quot; rel=&quot;nofollow&quot; target=&quot;_NEW&quot;&gt;\nhttp://postimg.org/image/786x76n9r/&lt;/a&gt;\n &lt;a href=&quot;\nhttp://postimg.org/image/q1sq46lhr/&quot; rel=&quot;nofollow&quot; target=&quot;_NEW&quot;&gt;\nhttp://postimg.org/image/q1sq46lhr/&lt;/a&gt;\n &lt;a href=&quot;\nhttp://postimg.org/image/wtj571ahb/&quot; rel=&quot;nofollow&quot; target=&quot;_NEW&quot;&gt;\nhttp://postimg.org/image/wtj571ahb/&lt;/a&gt;\n &lt;a href=&quot;\nhttp://postimg.org/image/lighio3m7/&quot; rel=&quot;nofollow&quot; target=&quot;_NEW&quot;&gt;\nhttp://postimg.org/image/lighio3m7/&lt;/a&gt;\n &lt;a href=&quot;\nhttp://postimg.org/image/6b0hybbrj/&quot; rel=&quot;nofollow&quot; target=&quot;_NEW&quot;&gt;\nhttp://postimg.org/image/6b0hybbrj/&lt;/a&gt;\n &lt;a href=&quot;\nhttp://www.imdb.com/title/tt0209077/&quot; rel=&quot;nofollow&quot; target=&quot;_NEW&quot;&gt;\nhttp://www.imdb.com/title/tt0209077/&lt;/a&gt;\n\n\nIncludes Interviews With Cast and Crew\n\nFormat                                   : MPEG-4\nFormat profile                           : Base Media / Version 2\nCodec ID                                 : mp42\nFile size                                : 1.05 GiB\nDuration                                 : 1h 32mn\nOverall bit rate mode                    : Variable\nOverall bit rate                         : 1 631 Kbps\nEncoded date                             : UTC 2013-11-24 02:18:23\nTagged date                              : UTC 2013-11-24 03:14:49\nWriting application                      : HandBrake 0.9.9 2013052900\n\nVideo\nID                                       : 1\nFormat                                   : AVC\nFormat/Info                              : Advanced Video Codec\nFormat profile                           : &lt;a class=&quot;__cf_email__&quot; href=&quot;/cdn-cgi/l/email-protection&quot; data-cfemail=&quot;440c2d232c0408716a76&quot;&gt;[email&amp;#160;protected]&lt;/a&gt;&lt;script data-cfhash='f9e31' type=&quot;text/javascript&quot;&gt;\n/* &lt;![CDATA[ */!function(){try{var t=&quot;currentScript&quot;in document?document.currentScript:function(){for(var t=document.getElementsByTagName(&quot;script&quot;),e=t.length;e--;)if(t[e].getAttribute(&quot;data-cfhash&quot;))return t[e]}();if(t&amp;&amp;t.previousSibling){var e,r,n,i,c=t.previousSibling,a=c.getAttribute(&quot;data-cfemail&quot;);if(a){for(e=&quot;&quot;,r=parseInt(a.substr(0,2),16),n=2;a.length-n;n+=2)i=parseInt(a.substr(n,2),16)^r,e+=String.fromCharCode(i);e=document.createTextNode(e),c.parentNode.replaceChild(e,c)}t.parentNode.removeChild(t);}}catch(u){}}()/* ]]&gt; */&lt;/script&gt;\nFormat settings, CABAC                   : Yes\nFormat settings, ReFrames                : 4 frames\nCodec ID                                 : avc1\nCodec ID/Info                            : Advanced Video Coding\nDuration                                 : 1h 32mn\nBit rate                                 : 1 362 Kbps\nWidth                                    : 720 pixels\nHeight                                   : 576 pixels\nDisplay aspect ratio                     : 16:9\nFrame rate mode                          : Constant\nFrame rate                               : 25.000 fps\nStandard                                 : PAL\nColor space                              : YUV\nChroma subsampling                       : 4:2:0\nBit depth                                : 8 bits\nScan type                                : Progressive\nBits/(Pixel*Frame)                       : 0.131\nStream size                              : 900 MiB (83%)\nWriting library                          : x264 core 130 r2273 b3065e6\nEncoding settings                        : cabac=1 / ref=3 / deblock=1:0:0 / \nEncoded date                             : UTC 2013-11-24 02:18:23\nTagged date                              : UTC 2013-11-24 03:14:49\nColor primaries                          : BT.601 PAL\nTransfer characteristics                 : BT.709\nMatrix coefficients                      : BT.601\n\nAudio #1\nID                                       : 2\nFormat                                   : AAC\nFormat/Info                              : Advanced Audio Codec\nFormat profile                           : LC\nCodec ID                                 : 40\nDuration                                 : 1h 32mn\nBit rate mode                            : Variable\nBit rate                                 : 96.0 Kbps\nMaximum bit rate                         : 120 Kbps\nChannel(s)                               : 2 channels\nChannel positions                        : Front: L R\nSampling rate                            : 48.0 KHz\nCompression mode                         : Lossy\nStream size                              : 63.4 MiB (6%)\nLanguage                                 : English\nEncoded date                             : UTC 2013-11-24 02:18:23\nTagged date                              : UTC 2013-11-24 03:14:48\n\nStoryline\n\nKen Park focuses on several teenagers and their tormented home lives. Shawn seems to be the most conventional. Tate is brimming with psychotic rage; Claude is habitually harassed by his brutish father and coddled, rather uncomfortably, by his enormously pregnant mother. Peaches looks after her devoutly religious father, but yearns for freedom. They're all rather tight, or so they claim. But they spend precious little time together and none of them seems to know much about one another's family lives. This bizarre dichotomy underscores their alienation # the result of suburban ennui, a teenager's inherent sense of melodrama, and the disturbing nature of their home environments. \n","torrent":{"xt":"urn:btih:3acfb5c2d8ad9b0faac1d870bd6791dbf03c35c9","amp;dn":"Ken+Park+%28Uncut%2FUncensored+Director%27s+Version%29+DVD+RIP+%282002%29","amp;tr":["udp%3A%2F%2Ftracker.openbittorrent.com%3A80","udp%3A%2F%2Fopen.demonii.com%3A1337","udp%3A%2F%2Ftracker.coppersurfer.tk%3A6969","udp%3A%2F%2Fexodus.desync.com%3A6969"],"infoHash":"3acfb5c2d8ad9b0faac1d870bd6791dbf03c35c9","infoHashBuffer":{"type":"Buffer","data":[58,207,181,194,216,173,155,15,170,193,216,112,189,103,145,219,240,60,53,201]},"announce":[],"urlList":[]}}